<svg width="220" height="40" viewBox="0 0 220 40" fill="none" xmlns="http://www.w3.org/2000/svg">
<path d="M9.33332 17.3333C9.19169 17.3516 9.04829 17.3516 8.90665 17.3333C8.74006 17.2777 8.58611 17.1896 8.45364 17.0743C8.32117 16.959 8.21279 16.8186 8.13474 16.6612C8.05668 16.5039 8.01049 16.3327 7.9988 16.1574C7.98712 15.9822 8.01018 15.8063 8.06665 15.64L10.7333 7.64C10.7894 7.47366 10.8776 7.31998 10.993 7.18775C11.1084 7.05551 11.2488 6.9473 11.406 6.8693C11.5633 6.7913 11.7343 6.74503 11.9094 6.73314C12.0846 6.72125 12.2603 6.74397 12.4267 6.8C12.593 6.85603 12.7467 6.94428 12.8789 7.0597C13.0111 7.17512 13.1194 7.31546 13.1974 7.4727C13.2754 7.62994 13.3216 7.801 13.3335 7.97612C13.3454 8.15124 13.3227 8.32699 13.2667 8.49333L10.6 16.4933C10.4995 16.7457 10.3244 16.9614 10.0981 17.1115C9.8717 17.2616 9.60488 17.339 9.33332 17.3333ZM23.0933 17.3333C23.2737 17.2856 23.4421 17.2006 23.5876 17.0837C23.7331 16.9669 23.8524 16.8208 23.9379 16.6549C24.0234 16.489 24.073 16.307 24.0837 16.1207C24.0944 15.9344 24.0659 15.7479 24 15.5733L21.3333 7.57333C21.2202 7.23739 20.9782 6.96016 20.6606 6.80263C20.5034 6.72463 20.3323 6.67836 20.1572 6.66647C19.9821 6.65458 19.8063 6.6773 19.64 6.73333C19.304 6.84649 19.0268 7.08847 18.8693 7.40603C18.7913 7.56327 18.745 7.73434 18.7331 7.90946C18.7212 8.08458 18.744 8.26033 18.8 8.42667L21.4667 16.4267C21.5522 16.681 21.7125 16.9036 21.9266 17.0653C22.1407 17.2271 22.3986 17.3205 22.6667 17.3333C22.8083 17.3516 22.9517 17.3516 23.0933 17.3333Z" fill="#0377FF"/>
<path d="M29.0134 15.1333C28.8882 14.987 28.7328 14.8695 28.5579 14.7889C28.3829 14.7084 28.1926 14.6667 28.0001 14.6667H4.00005C3.80747 14.6667 3.61716 14.7084 3.44223 14.7889C3.2673 14.8695 3.1119 14.987 2.98672 15.1333C2.85593 15.2806 2.7594 15.4551 2.70407 15.6441C2.64874 15.8331 2.63599 16.0321 2.66672 16.2267L5.16005 31.1067C5.26515 31.7352 5.59187 32.3054 6.08104 32.7138C6.57021 33.1223 7.1895 33.3421 7.82672 33.3333H24.2267C24.8639 33.3421 25.4832 33.1223 25.9724 32.7138C26.4616 32.3054 26.7883 31.7352 26.8934 31.1067L29.3334 16.2267C29.3641 16.0321 29.3514 15.8331 29.296 15.6441C29.2407 15.4551 29.1442 15.2806 29.0134 15.1333Z" fill="#0377FF"/>
<path d="M21.3333 28C20.9796 28 20.6405 27.8595 20.3904 27.6095C20.1404 27.3594 19.9999 27.0203 19.9999 26.6667V21.3333C19.9999 20.9797 20.1404 20.6406 20.3904 20.3905C20.6405 20.1405 20.9796 20 21.3333 20C21.6869 20 22.026 20.1405 22.2761 20.3905C22.5261 20.6406 22.6666 20.9797 22.6666 21.3333V26.6667C22.6666 27.0203 22.5261 27.3594 22.2761 27.6095C22.026 27.8595 21.6869 28 21.3333 28ZM15.9999 28C15.6463 28 15.3072 27.8595 15.0571 27.6095C14.8071 27.3594 14.6666 27.0203 14.6666 26.6667V21.3333C14.6666 20.9797 14.8071 20.6406 15.0571 20.3905C15.3072 20.1405 15.6463 20 15.9999 20C16.3535 20 16.6927 20.1405 16.9427 20.3905C17.1928 20.6406 17.3333 20.9797 17.3333 21.3333V26.6667C17.3333 27.0203 17.1928 27.3594 16.9427 27.6095C16.6927 27.8595 16.3535 28 15.9999 28ZM10.6666 28C10.313 28 9.97382 27.8595 9.72378 27.6095C9.47373 27.3594 9.33325 27.0203 9.33325 26.6667V21.3333C9.33325 20.9797 9.47373 20.6406 9.72378 20.3905C9.97382 20.1405 10.313 20 10.6666 20C11.0202 20 11.3593 20.1405 11.6094 20.3905C11.8594 20.6406 11.9999 20.9797 11.9999 21.3333V26.6667C11.9999 27.0203 11.8594 27.3594 11.6094 27.6095C11.3593 27.8595 11.0202 28 10.6666 28Z" fill="white"/>
<path d="M52.544 32.192C50.6027 32.192 48.8747 31.8187 47.36 31.072C45.8667 30.304 44.6933 29.2587 43.84 27.936C42.9867 26.6133 42.56 25.0987 42.56 23.392V9.6H49.536V23.104C49.536 23.7227 49.664 24.2773 49.92 24.768C50.176 25.2373 50.528 25.6107 50.976 25.888C51.4453 26.1653 51.968 26.304 52.544 26.304C53.1627 26.304 53.7067 26.1653 54.176 25.888C54.6453 25.6107 55.0187 25.2373 55.296 24.768C55.5733 24.2773 55.712 23.7227 55.712 23.104V9.6H62.528V23.392C62.528 25.0987 62.1013 26.6133 61.248 27.936C60.3947 29.2587 59.2107 30.304 57.696 31.072C56.2027 31.8187 54.4853 32.192 52.544 32.192ZM67.3338 32V14.88H73.3498L73.6698 18.336L72.2938 18.72C72.5284 17.9093 72.9444 17.1947 73.5417 16.576C74.1604 15.936 74.8964 15.4347 75.7498 15.072C76.6031 14.7093 77.5098 14.528 78.4698 14.528C79.7498 14.528 80.8378 14.7947 81.7338 15.328C82.6298 15.8613 83.3018 16.6507 83.7498 17.696C84.2191 18.72 84.4538 19.968 84.4538 21.44V32H77.9578V21.984C77.9578 21.5147 77.8831 21.12 77.7338 20.8C77.5844 20.48 77.3604 20.2347 77.0618 20.064C76.7631 19.8933 76.4111 19.808 76.0058 19.808C75.6858 19.808 75.3871 19.8613 75.1098 19.968C74.8538 20.0533 74.6298 20.192 74.4378 20.384C74.2458 20.576 74.0964 20.7893 73.9898 21.024C73.8831 21.2587 73.8298 21.5253 73.8298 21.824V32H70.5978C69.7871 32 69.1044 32 68.5498 32C68.0164 32 67.6111 32 67.3338 32ZM88.711 32V14.88H95.207V32H88.711ZM91.975 11.776C90.823 11.776 89.9163 11.5093 89.255 10.976C88.615 10.4427 88.295 9.68533 88.295 8.704C88.295 7.808 88.6257 7.072 89.287 6.496C89.9483 5.92 90.8443 5.632 91.975 5.632C93.127 5.632 94.023 5.89867 94.663 6.432C95.3243 6.96533 95.655 7.72267 95.655 8.704C95.655 9.6 95.3243 10.336 94.663 10.912C94.0017 11.488 93.1057 11.776 91.975 11.776ZM99.8025 32V14.88H105.819L106.075 17.568L105.339 17.312C105.659 16.7573 106.021 16.3093 106.427 15.968C106.853 15.6053 107.301 15.3173 107.771 15.104C108.24 14.8907 108.72 14.7413 109.211 14.656C109.701 14.5707 110.171 14.528 110.619 14.528C111.365 14.528 112.069 14.6347 112.731 14.848C113.392 15.04 113.989 15.392 114.523 15.904C115.056 16.416 115.504 17.152 115.867 18.112L114.875 18.08L115.131 17.632C115.451 17.0773 115.835 16.608 116.283 16.224C116.731 15.84 117.221 15.52 117.755 15.264C118.288 15.008 118.832 14.8267 119.387 14.72C119.941 14.592 120.475 14.528 120.987 14.528C122.395 14.528 123.579 14.7947 124.539 15.328C125.499 15.8613 126.213 16.6507 126.683 17.696C127.173 18.72 127.419 19.968 127.419 21.44V32H120.923V21.984C120.923 21.5147 120.848 21.12 120.699 20.8C120.549 20.48 120.325 20.2347 120.027 20.064C119.749 19.8933 119.408 19.808 119.003 19.808C118.683 19.808 118.384 19.8613 118.107 19.968C117.851 20.0533 117.627 20.192 117.435 20.384C117.264 20.576 117.125 20.7893 117.019 21.024C116.912 21.2587 116.859 21.5253 116.859 21.824V32H110.363V21.984C110.363 21.5147 110.288 21.12 110.139 20.8C109.989 20.48 109.765 20.2347 109.467 20.064C109.189 19.8933 108.848 19.808 108.443 19.808C108.123 19.808 107.824 19.8613 107.547 19.968C107.291 20.0533 107.067 20.192 106.875 20.384C106.704 20.576 106.565 20.7893 106.459 21.024C106.352 21.2587 106.299 21.5253 106.299 21.824V32H99.8025ZM137.696 32.288C136.266 32.288 134.997 31.9147 133.888 31.168C132.778 30.4 131.904 29.3547 131.264 28.032C130.624 26.688 130.304 25.152 130.304 23.424C130.304 21.6747 130.613 20.1387 131.232 18.816C131.872 17.472 132.746 16.4267 133.856 15.68C134.986 14.912 136.288 14.528 137.76 14.528C138.528 14.528 139.232 14.6347 139.872 14.848C140.512 15.0613 141.077 15.36 141.568 15.744C142.058 16.128 142.485 16.576 142.848 17.088C143.21 17.5787 143.52 18.112 143.776 18.688L142.464 18.656V14.88H148.832V32H142.304V27.808L143.744 27.936C143.53 28.5547 143.232 29.1307 142.848 29.664C142.485 30.1973 142.048 30.656 141.536 31.04C141.024 31.424 140.448 31.7333 139.808 31.968C139.168 32.1813 138.464 32.288 137.696 32.288ZM139.552 27.008C140.17 27.008 140.693 26.8693 141.12 26.592C141.568 26.3147 141.898 25.9093 142.112 25.376C142.346 24.8427 142.464 24.192 142.464 23.424C142.464 22.656 142.346 22.0053 142.112 21.472C141.898 20.9173 141.568 20.5013 141.12 20.224C140.693 19.9467 140.17 19.808 139.552 19.808C138.933 19.808 138.41 19.9467 137.984 20.224C137.557 20.5013 137.226 20.9173 136.992 21.472C136.778 22.0053 136.672 22.656 136.672 23.424C136.672 24.192 136.778 24.8427 136.992 25.376C137.226 25.9093 137.557 26.3147 137.984 26.592C138.41 26.8693 138.933 27.008 139.552 27.008ZM153.303 32V14.88H159.319L159.703 20.576L158.263 19.68C158.54 18.6987 158.977 17.824 159.575 17.056C160.172 16.2667 160.887 15.648 161.719 15.2C162.572 14.752 163.479 14.528 164.439 14.528C164.823 14.528 165.185 14.56 165.527 14.624C165.868 14.6667 166.199 14.7307 166.519 14.816L164.727 22.016C164.513 21.8667 164.172 21.728 163.703 21.6C163.255 21.472 162.764 21.408 162.231 21.408C161.847 21.408 161.495 21.472 161.175 21.6C160.876 21.7067 160.62 21.8773 160.407 22.112C160.215 22.3467 160.065 22.624 159.959 22.944C159.852 23.264 159.799 23.6373 159.799 24.064V32H153.303ZM175.452 27.2L172.252 23.168L180.156 14.88H188.604L175.452 27.2ZM169.084 32V8.32H175.58V32H169.084ZM180.732 32L175.036 23.968L179.58 20.704L188.156 32H180.732ZM198.059 32.32C196.075 32.32 194.369 31.936 192.939 31.168C191.51 30.4 190.411 29.3547 189.643 28.032C188.875 26.688 188.491 25.152 188.491 23.424C188.491 22.144 188.705 20.96 189.131 19.872C189.558 18.784 190.155 17.8453 190.923 17.056C191.713 16.2453 192.63 15.6267 193.675 15.2C194.742 14.752 195.905 14.528 197.163 14.528C198.422 14.528 199.563 14.752 200.587 15.2C201.633 15.6267 202.529 16.2453 203.275 17.056C204.022 17.8453 204.587 18.784 204.971 19.872C205.377 20.96 205.558 22.144 205.515 23.424L205.483 24.768H192.075L191.339 21.728H200.331L199.723 22.368V21.792C199.723 21.3867 199.617 21.0347 199.403 20.736C199.211 20.416 198.934 20.1707 198.571 20C198.209 19.8293 197.782 19.744 197.291 19.744C196.673 19.744 196.15 19.872 195.723 20.128C195.297 20.384 194.966 20.7467 194.731 21.216C194.518 21.6853 194.411 22.2507 194.411 22.912C194.411 23.68 194.571 24.352 194.891 24.928C195.233 25.504 195.723 25.952 196.363 26.272C197.025 26.592 197.835 26.752 198.795 26.752C199.435 26.752 199.979 26.6773 200.427 26.528C200.897 26.3573 201.387 26.0907 201.899 25.728L204.875 29.92C204.086 30.5387 203.307 31.0187 202.539 31.36C201.793 31.7013 201.046 31.9467 200.299 32.096C199.574 32.2453 198.827 32.32 198.059 32.32ZM209.417 32V10.56H215.913V32H209.417ZM206.761 20.32V14.88H218.729V20.32H206.761Z" fill="#0377FF"/>
</svg>
