<svg width="17" height="16" viewBox="0 0 17 16" fill="none" xmlns="http://www.w3.org/2000/svg">
<path d="M4.6875 3.66667L7.02083 0.645833C7.1875 0.423611 7.38542 0.260417 7.61458 0.15625C7.84375 0.0520833 8.08333 0 8.33333 0C8.58333 0 8.82292 0.0520833 9.05208 0.15625C9.28125 0.260417 9.47917 0.423611 9.64583 0.645833L11.9792 3.66667L15.5208 4.85417C15.8819 4.96528 16.1667 5.17014 16.375 5.46875C16.5833 5.76736 16.6875 6.09722 16.6875 6.45833C16.6875 6.625 16.6632 6.79167 16.6146 6.95833C16.566 7.125 16.4861 7.28472 16.375 7.4375L14.0833 10.6875L14.1667 14.1042C14.1806 14.5903 14.0208 15 13.6875 15.3333C13.3542 15.6667 12.9653 15.8333 12.5208 15.8333C12.4931 15.8333 12.3403 15.8125 12.0625 15.7708L8.33333 14.7292L4.60417 15.7708C4.53472 15.7986 4.45833 15.816 4.375 15.8229C4.29167 15.8299 4.21528 15.8333 4.14583 15.8333C3.70139 15.8333 3.3125 15.6667 2.97917 15.3333C2.64583 15 2.48611 14.5903 2.5 14.1042L2.58333 10.6667L0.3125 7.4375C0.201389 7.28472 0.121528 7.125 0.0729167 6.95833C0.0243056 6.79167 0 6.625 0 6.45833C0 6.11111 0.100694 5.78819 0.302083 5.48958C0.503472 5.19097 0.784722 4.97917 1.14583 4.85417L4.6875 3.66667Z" fill="#FFCC00"/>
</svg>
